<!-- Created with PixiEditor (https://pixieditor.net) -->
<svg version="1.1" viewBox="0 0 256 256" xmlns="http://www.w3.org/2000/svg">
  <ellipse cx="128" cy="128" rx="128" ry="128" transform="matrix(1, 0, 0, 1, 2.6226044E-06, 0)" fill="#000000" fill-opacity="1" stroke="#000000" stroke-width="0" opacity="1" id="Ellipse" />
  <ellipse cx="128" cy="128" rx="123.65096516897478" ry="123.65096516897484" transform="matrix(1, 0, 0, 1, -2.3841858E-06, -2.861023E-06)" fill="#de9e41" fill-opacity="1" stroke="#de9e41" stroke-width="0" opacity="1" id="Ellipse" />
  <ellipse cx="59.393976993858146" cy="153.98582884552337" rx="25.985828845522875" ry="25.985828845523372" transform="matrix(0.8504354, 0, 2.1270092E-15, 0.8504353, 1.552906, 38.40706)" fill="#cf573c" fill-opacity="1" stroke="#cf573c" stroke-width="0" opacity="1" id="Ellipse" />
  <ellipse cx="59.393976993858146" cy="153.98582884552337" rx="25.985828845522875" ry="25.985828845523372" transform="matrix(0.8504351, 0, 0, 0.8504353, 153.42566, 38.40706)" fill="#cf573c" fill-opacity="1" stroke="#cf573c" stroke-width="0" opacity="1" id="Ellipse" />
  <path d="M71.0174 61.1737C71.0174 61.1737 71.0174 65.9453 71.0174 71.4185C71.0174 101.501 76.3954 104.214 88.6459 104.214C106.214 104.214 106.35 101.396 106.35 71.4185L106.35 61.1737" fill-rule="nonzero" transform="matrix(1.2287037, 0, 0, 1.2287037, -27.431015, -6.9395447)" fill="#ffffff" fill-opacity="0" stroke="#090a14" stroke-width="6" stroke-linecap="round" stroke-linejoin="round" opacity="1" id="New layer 1" />
  <path d="M71.0174 61.1737C71.0174 61.1737 71.0174 65.9453 71.0174 71.4185C71.0174 101.501 76.3954 104.214 88.6459 104.214C106.214 104.214 106.35 101.396 106.35 71.4185L106.35 61.1737" fill-rule="nonzero" transform="matrix(1.2287037, 0, 0, 1.2287037, 57.633102, -6.9395447)" fill="#ffffff" fill-opacity="0" stroke="#090a14" stroke-width="6" stroke-linecap="round" stroke-linejoin="round" opacity="1" id="New layer 1" />
  <path d="M103.155 141.507C103.155 141.507 103.155 144.274 103.155 147.448C103.155 164.892 106.273 166.465 113.377 166.465C123.564 166.465 123.643 164.831 123.643 147.448L123.643 141.507M124.03 141.507C124.03 141.507 124.03 144.274 124.03 147.448C124.03 164.892 127.149 166.465 134.252 166.465C144.439 166.465 144.518 164.831 144.518 147.448L144.518 141.507" fill-rule="nonzero" transform="matrix(1.2287034, 0, 1.2604645E-14, 1.2287037, -24.158478, -22.921127)" fill="#ffffff" fill-opacity="0" stroke="#090a14" stroke-width="6" stroke-linecap="round" stroke-linejoin="round" opacity="1" id="New layer 1" />
</svg>